<svg xmlns="http://www.w3.org/2000/svg" data-name="Layer 1" viewBox="0 0 128 128" width="512" height="512"><path fill="#290713" d="M126.25 2.79H1.75A1.752 1.752 0 000 4.54v9.34a1.743 1.743 0 001.75 1.74H30l-11.28 6.84a3.789 3.789 0 00-1.8 3.21v4.65a3.738 3.738 0 005.69 3.21l29.55-17.91h6.59v18.59H42.88a8 8 0 00-6.61 12.5h-1.02a8 8 0 00-6.61 12.5h-.89a8 8 0 00-6.61 12.5H20a8 8 0 000 16h1.14a7.912 7.912 0 00-1.39 4.5 8.011 8.011 0 008 8h.89a7.912 7.912 0 00-1.39 4.5 8.011 8.011 0 008 8h1.02a7.912 7.912 0 00-1.39 4.5 8 8 0 008 8h42.24a8 8 0 008-8 7.912 7.912 0 00-1.39-4.5h1.02a8.011 8.011 0 008-8 7.912 7.912 0 00-1.39-4.5h.89a8.011 8.011 0 008-8 7.912 7.912 0 00-1.39-4.5H108a8.094 8.094 0 008-8 8.009 8.009 0 00-8-8h-1.139a7.995 7.995 0 00-6.611-12.5h-.89a8 8 0 00-6.61-12.5h-1.02a8 8 0 00-6.61-12.5H69.25V15.62h57a1.743 1.743 0 001.75-1.74V4.54a1.752 1.752 0 00-1.75-1.75zm-98.5 59.92h28.28c-2.35 2.56-2.86 5.65-2.86 9H27.75a4.5 4.5 0 010-9zM20 84.21a4.5 4.5 0 010-9h33.17v9zm65.12 37.5H42.88a4.5 4.5 0 010-9h42.24a4.5 4.5 0 010 9zm7.63-12.5h-57.5a4.5 4.5 0 010-9h57.5a4.5 4.5 0 010 9zm7.5-12.5h-72.5a4.5 4.5 0 010-9h72.5a4.5 4.5 0 010 9zm-43.58-12.5V70.04a7.33 7.33 0 1114.66 0v14.17zm55.83-4.5a4.562 4.562 0 01-4.5 4.5H74.83v-9h33.18a4.5 4.5 0 014.49 4.498zm-12.25-17a4.5 4.5 0 010 9H74.83c0-3.35-.51-6.44-2.86-9zm-7.5-12.5a4.5 4.5 0 010 9h-57.5a4.5 4.5 0 010-9zm-7.63-12.5a4.5 4.5 0 010 9H42.88a4.5 4.5 0 010-9zm-22.87-3.5V15.62h3.5v18.59zm62.25-22.09H51.67a1.718 1.718 0 00-.91.26L20.8 30.54a.228.228 0 01-.26 0 .235.235 0 01-.12-.22v-4.65a.225.225 0 01.12-.21l16.63-10.09a1.752 1.752 0 00-.9-3.25H3.5V6.29h121z"/></svg>