<svg xmlns="http://www.w3.org/2000/svg" viewBox="0 0 512 512"><path fill="#fff" d="M505 11.2H7c-3.9 0-7 3.1-7 7v37.4c0 3.9 3.1 7 7 7h113L74.9 89.8c-4.5 2.7-7.2 7.6-7.2 12.8v18.6c0 8.3 6.6 15 14.9 15 2.8 0 5.5-.7 7.9-2.2l118.2-71.6H235v74.4h-63.5c-17.7 0-32 14.3-32 32 0 6.4 1.9 12.7 5.5 18h-4c-17.7 0-32 14.3-32 32 0 6.4 1.9 12.7 5.5 18H111c-17.7 0-32 14.3-32 32 0 6.4 1.9 12.7 5.5 18H80c-17.7 0-32 14.3-32 32s14.3 32 32 32h4.6c-3.6 5.3-5.6 11.6-5.6 18 0 17.7 14.3 32 32 32h3.6c-3.6 5.3-5.6 11.6-5.6 18 0 17.7 14.3 32 32 32h4.1c-3.6 5.3-5.6 11.6-5.6 18 0 17.7 14.3 32 32 32h169c17.7 0 32-14.3 32-32 0-6.4-1.9-12.7-5.6-18h4.1c17.7 0 32-14.3 32-32 0-6.4-1.9-12.7-5.6-18h3.6c17.7 0 32-14.3 32-32 0-6.4-1.9-12.7-5.6-18h4.6c17.6-.2 31.8-14.4 32-32 0-17.7-14.3-32-32-32h-4.6c10-14.6 6.2-34.5-8.4-44.4-5.3-3.6-11.6-5.6-18-5.6h-3.6c9.9-14.6 6.2-34.5-8.5-44.5-5.3-3.6-11.6-5.5-18-5.5h-4.1c9.9-14.6 6.2-34.5-8.5-44.5-5.3-3.6-11.6-5.5-18-5.5H277V62.5h228c3.9 0 7-3.1 7-6.9V18.2c0-3.9-3.1-7-7-7zM111 250.8h113.1c-9.4 10.2-11.4 22.6-11.4 36H111c-9.9 0-18-8.1-18-18s8.1-18 18-18zm-31 86c-9.9 0-18-8.1-18-18s8.1-18 18-18h132.7v36H80zm260.5 150h-169c-9.9 0-18-8.1-18-18s8.1-18 18-18h169c9.9 0 18 8.1 18 18s-8.1 18-18 18zm30.5-50H141c-9.9 0-18-8.1-18-18s8.1-18 18-18h230c9.9 0 18 8.1 18 18s-8.1 18-18 18zm30-50H111c-9.9 0-18-8.1-18-18s8.1-18 18-18h290c9.9 0 18 8.1 18 18s-8.1 18-18 18zm-174.3-50v-56.7c0-16.2 13.1-29.3 29.3-29.3s29.3 13.1 29.3 29.3v56.7h-58.6zm223.3-18c-.1 9.9-8.1 17.9-18 18H299.3v-36H432c10 .1 18 8.1 18 18zm-49-68c9.9 0 18 8.1 18 18s-8.1 18-18 18H299.3c0-13.4-2-25.8-11.4-36H401zm-30-50c9.9 0 18 8.1 18 18s-8.1 18-18 18H141c-9.9 0-18-8.1-18-18s8.1-18 18-18h230zm-30.5-50c9.9 0 18 8.1 18 18s-8.1 18-18 18h-169c-9.9 0-18-8.1-18-18s8.1-18 18-18h169zm-91.5-14V62.5h14v74.4h-14zm249-88.3H206.7c-1.3 0-2.5.4-3.6 1L83.2 122.2c-.3.2-.7.2-1 0-.3-.2-.5-.5-.5-.9v-18.6c0-.3.2-.7.5-.8l66.5-40.4c3.3-2 4.4-6.3 2.4-9.6-1.3-2.1-3.5-3.4-6-3.4H14V25.2h484v23.3z"/></svg>