<svg xmlns="http://www.w3.org/2000/svg" viewBox="0 0 512 512"><g fill="#f91"><path d="M7.5 208.159l82.833-47.824 82.834 47.824v95.648L90.333 351.63 7.5 303.807zm165.667 0L256 160.335l82.833 47.824v95.648L256 351.63l-82.833-47.823zm165.666 0l82.834-47.824 82.833 47.824v95.648l-82.833 47.823-82.834-47.823z"/><path d="M90.333 64.7l82.834-47.824L256 64.7v95.647l-82.833 47.824-82.834-47.824zM256 64.7l82.833-47.824L421.667 64.7v95.647l-82.834 47.824L256 160.347zM90.333 351.653l82.834-47.824L256 351.653V447.3l-82.833 47.824L90.333 447.3zm165.667 0l82.833-47.824 82.834 47.824V447.3l-82.834 47.824L256 447.3z"/></g><g fill="#e57f0e"><path d="M118.987 140.422V48.156L90.333 64.7v95.647l82.834 47.824 30.755-17.756zm167.286 0V48.156L257.62 64.7v95.647l82.833 47.824 30.755-17.756zm-167.286 290.08v-92.266l-28.654 16.543v95.648l82.834 47.824 30.755-17.757zm167.286 0v-92.266l-28.653 16.543v95.648l82.833 47.824 30.755-17.757zM35.344 283.881v-92.265L6.69 208.159v95.648l82.834 47.823 30.755-17.756zm167.286 0v-92.265l-28.653 16.543v95.648l82.833 47.823 30.755-17.756z"/><path d="M367.487 283.881v-92.265l-28.654 16.543v95.648l82.834 47.823 30.755-17.756z"/></g><path d="M156.248 244.681h-15v-17.173l-35.592-20.549 7.5-12.99 43.092 24.879zM141.25 251.8h15v15.913h-15zm180.664-7.119h-15v-17.173l-35.591-20.549 7.5-12.99 43.091 24.879zM306.91 251.8h15v15.913h-15zm180.671-7.119h-15v-17.173l-35.592-20.549 7.5-12.99 43.092 24.879zM472.58 251.8h15v15.913h-15zM239.081 101.221h-15V84.049L188.489 63.5l7.5-12.99 43.092 24.879zm-15.001 7.119h15v15.913h-15zm180.668-7.119h-15V84.049L354.156 63.5l7.5-12.99 43.092 24.879zm-14.998 7.119h15v15.913h-15zM239.081 388.175h-15v-17.173l-35.592-20.549 7.5-12.99 43.092 24.879zm-15.001 7.115h15v15.913h-15z" fill="#fff"/><path d="M429.167 156.005V60.37L338.833 8.215 256 56.039 173.167 8.215 82.833 60.37v95.635L0 203.829v104.308l82.833 47.824v95.67l90.333 52.154L256 455.961l82.833 47.824 90.333-52.154v-95.67L512 308.137V203.829l-82.833-47.824zM263.5 69.03l75.333-43.494 75.333 43.494v86.975l-75.333 43.494-75.333-43.494V69.03zm-165.667 0l75.333-43.494L248.5 69.03v86.975l-75.333 43.494-75.333-43.494-.001-86.975zM15 299.477v-86.988l75.323-43.488 75.344 43.5v86.976L90.333 342.97 15 299.477zM248.5 442.97l-75.333 43.494-75.334-43.494v-86.987l75.333-43.494 75.333 43.494v86.987h.001zm-67.833-143.493v-86.976L256 169.007l75.333 43.494v86.976L256 342.97l-75.333-43.493zm233.5 143.493l-75.333 43.494L263.5 442.97v-86.987l75.333-43.494 75.333 43.494.001 86.987zM497 299.477l-75.333 43.494-75.333-43.494v-86.976l75.344-43.5L497 212.489v86.988z"/><path d="M404.748 388.175h-15v-17.173l-35.592-20.549 7.5-12.99 43.092 24.879zm-14.998 7.115h15v15.913h-15z" fill="#fff"/></svg>