<svg xmlns="http://www.w3.org/2000/svg" viewBox="0 0 512 512"><g fill="#fff"><path d="M451.8 60.2h-21.6C423.2 25.9 392.8 0 356.4 0H155.6c-36.4 0-66.8 25.9-73.8 60.2H60.2v90.4H91c-4.7 6.5-11.3 12.4-19.2 20.5-7.5 7.7-11.6 17.8-11.6 28.6v239.7c0 40 32.6 72.6 72.6 72.6h246.4c40 0 72.6-32.6 72.6-72.6V199.7c0-10.9-4.2-21.1-11.8-28.8-8.1-8.2-14.3-13.9-18.6-20.3h30.4V60.2zM155.6 30.1h200.8c19.6 0 36.4 12.6 42.6 30.1H113c6.2-17.5 23-30.1 42.6-30.1zm223.6 451.8H132.8c-23.4 0-42.4-19-42.4-42.4V216.8c9.3 8.1 20.2 22.9 45.2 22.9 21.1 0 32.3-10.8 40.5-18.7 7.4-7.1 11.1-10.3 19.7-10.3s12.3 3.1 19.7 10.3c8.2 7.9 19.4 18.7 40.5 18.7s32.3-10.8 40.5-18.7c7.4-7.1 11.1-10.3 19.7-10.3s12.3 3.1 19.7 10.3c8.2 7.9 19.4 18.7 40.5 18.7s32.3-10.8 40.5-18.7c1.7-1.6 3.2-3.1 4.6-4.3v222.7c.1 23.4-18.9 42.5-42.3 42.5zm33.6-295.5c-7.1 3.8-12.3 8.8-16.7 13-7.4 7.1-11.1 10.3-19.7 10.3s-12.3-3.1-19.7-10.3c-8.2-7.9-19.4-18.7-40.5-18.7s-32.3 10.8-40.5 18.7c-7.4 7.1-11.1 10.3-19.7 10.3s-12.3-3.1-19.7-10.3c-8.2-7.9-19.4-18.7-40.5-18.7s-32.3 10.8-40.5 18.7c-7.4 7.1-11.1 10.3-19.7 10.3s-12.3-3.1-19.7-10.3c-4.4-4.2-9.6-9.2-16.7-13 10.2-10.2 19.8-19.8 25.9-35.8h262.8c5.7 16 14.7 25.5 24.9 35.8zm8.8-65.9H90.3V90.4h331.3v30.1z"/><path d="M256 313.9l-52.2-30.1-67.2 38.8v77.6l67.2 38.8 52.2-30.1 52.2 30.1 67.2-38.8v-77.6l-67.2-38.8-52.2 30.1zm-89.3 68.9V340l37.1-21.4 37.1 21.4v42.8l-37.1 21.4-37.1-21.4zm178.6 0l-37.1 21.4-37.1-21.4V340l37.1-21.4 37.1 21.4v42.8z"/></g></svg>