<svg xmlns="http://www.w3.org/2000/svg" viewBox="0 0 512 512" fill="#fff"><path d="M506.4 282.8l-117.7-67.3V80.2c0-3.6-1.9-6.9-5-8.7L261 1.3c-3.1-1.8-6.9-1.8-9.9 0L128.3 71.5c-3.1 1.8-5 5.1-5 8.7v135.3L5.6 282.8c-3.1 1.8-5 5.1-5 8.7v140.4c0 3.6 1.9 6.9 5 8.7l122.7 70.2c1.5.9 3.3 1.3 5 1.3 1.7 0 3.4-.4 5-1.3L256 443.3l117.7 67.3c1.5.9 3.3 1.3 5 1.3s3.4-.4 5-1.3l122.7-70.2c3.1-1.8 5-5.1 5-8.7V291.5c0-3.6-1.9-6.9-5-8.7zM256 21.5L368.7 86v129.5L256 279.9l-112.7-64.5V86L256 21.5zm-122.7 469L20.6 426V297.3l112.7-64.5L246 297.3V426l-112.7 64.5zM491.4 426l-112.7 64.5L266 426V297.3l112.7-64.5 112.7 64.5V426z"/><path fill="#FFF" d="M373.7 263.3l-78.7 45c-3.1 1.8-5 5.1-5 8.7v89.3c0 3.6 1.9 6.9 5 8.7l78.7 45c1.5.9 3.3 1.3 5 1.3 1.7 0 3.4-.4 5-1.3l78.7-45c3.1-1.8 5-5.1 5-8.7V317c0-3.6-1.9-6.9-5-8.7l-78.7-45c-3.1-1.8-6.9-1.8-10 0zm73.7 59.5v77.7l-68.7 39.3-68.7-39.3v-77.7l68.7-39.3 68.7 39.3z"/></svg>