<svg data-name="Capa 1" xmlns="http://www.w3.org/2000/svg" viewBox="0 0 53.94 53.94"><path fill="#f5e09c" d="M53.36 40.91c-2-3.8-9-7.91-9.29-8.09a5.54 5.54 0 00-2.7-.82 3.37 3.37 0 00-3 1.68 33.35 33.35 0 01-2.59 2.87C33.39 38.2 31.53 38 29.47 36L18 24.47c-2-2-2.23-3.93-.63-6.29a33.68 33.68 0 012.87-2.6 3.32 3.32 0 001.55-2 4.94 4.94 0 00-.65-3.73c-.17-.3-4.29-7.27-8.09-9.28a4.93 4.93 0 00-5.8.87L4.7 4C.69 8-.77 12.55.38 17.51c1 4.13 3.74 8.53 8.28 13.07l14.7 14.7c5.75 5.75 11.22 8.66 16.28 8.66 3.72 0 7.19-1.58 10.31-4.7l2.54-2.54a4.91 4.91 0 00.87-5.79z"/></svg>